# xmcd
#
# Track frame offsets:
#	150
#	19700
#	35665
#	51830
#	69625
#
# Disc length: 1155 seconds
#
# Revision: 0
# Processed by: cddbd v1.5.2PL0 Copyright (c) Steve Scherf et al.
# Submitted via: dBpowerAMP V4.0
#
DISCID=3f048105
DTITLE=Lights - Walk On Razors
DYEAR=2004
DGENRE=Rock and Roll
TTITLE0=Start it All Over Again
TTITLE1=Writing on The Wall
TTITLE2=Calling
TTITLE3=Doctor Jones
TTITLE4=Parting Lines
EXTD=
EXTT0=
EXTT1=
EXTT2=
EXTT3=
EXTT4=
PLAYORDER=
